<?xml version="1.0" encoding="iso-8859-1"?>
<!-- Uploaded to: SVG Repo, www.svgrepo.com, Generator: SVG Repo Mixer Tools -->
<svg height="800px" width="800px" version="1.1" id="Layer_1" xmlns="http://www.w3.org/2000/svg" xmlns:xlink="http://www.w3.org/1999/xlink" 
	 viewBox="0 0 512 512" xml:space="preserve">
<path style="fill:#FFD652;" d="M319.273,500.898l-17.031-136.249c-0.5-3.995-3.896-6.993-7.922-6.993h-76.64
	c-4.026,0-7.422,2.997-7.922,6.993l-17.031,136.249c-0.284,2.273,0.422,4.557,1.936,6.274c1.515,1.717,3.696,2.699,5.985,2.699
	h110.703c2.29,0,4.47-0.984,5.985-2.7C318.851,505.455,319.557,503.17,319.273,500.898z"/>
<path style="fill:#FB9D46;" d="M302.242,364.648c-0.5-3.995-3.896-6.993-7.922-6.993h-76.64c-4.026,0-7.422,2.997-7.922,6.993
	l-6.555,52.438h105.593L302.242,364.648z"/>
<g>
	<path style="fill:#E5E5E5;" d="M466.761,0H45.239C23.228,0,5.322,17.906,5.322,39.917v319.335
		c0,22.011,17.906,39.917,39.917,39.917h421.522c22.011,0,39.917-17.906,39.917-39.917V39.917C506.678,17.906,488.772,0,466.761,0z"
		/>
	<path style="fill:#E5E5E5;" d="M506.678,39.917C506.678,17.906,488.772,0,466.761,0H45.239C23.228,0,5.322,17.906,5.322,39.917
		v299.82h501.356V39.917z"/>
</g>
<g>
	<polygon style="fill:#FFFFFF;" points="330.866,339.737 366.525,339.737 506.678,199.584 506.678,163.925 	"/>
	<polygon style="fill:#FFFFFF;" points="428.795,339.737 506.678,261.854 506.678,223.002 389.943,339.737 	"/>
</g>
<path style="fill:#FFD652;" d="M5.322,339.737v19.515c0,22.011,17.906,39.917,39.917,39.917h421.522
	c22.011,0,39.917-17.906,39.917-39.917v-19.515H5.322z"/>
<path style="fill:#CCCCCC;" d="M85.156,0H45.239C23.228,0,5.322,17.906,5.322,39.917v299.82h39.917V39.917
	C45.239,17.906,63.145,0,85.156,0z"/>
<path style="fill:#FB9D46;" d="M45.239,359.252v-19.515H5.322v19.515c0,22.011,17.906,39.917,39.917,39.917h39.917
	C63.145,399.168,45.239,381.262,45.239,359.252z"/>
<path style="fill:#FF7452;" d="M314.469,56.022c-1.235-2.984-4.147-4.928-7.376-4.928h-13.306V29.272
	c0-4.409-3.573-7.983-7.983-7.983h-34.062c-4.409,0-7.983,3.574-7.983,7.983v21.821h-13.306c-3.23,0-6.14,1.945-7.376,4.928
	c-1.236,2.984-0.552,6.416,1.731,8.7l38.32,38.32c1.558,1.559,3.602,2.339,5.645,2.339c2.043,0,4.086-0.779,5.646-2.339l38.32-38.32
	C315.022,62.438,315.705,59.006,314.469,56.022z"/>
<path style="fill:#E24642;" d="M293.788,29.272c0-4.409-3.573-7.983-7.983-7.983h-34.062c-4.409,0-7.983,3.574-7.983,7.983v8.87
	h50.029V29.272z"/>
<path style="fill:#FF7452;" d="M345.414,512H166.586c-4.409,0-7.983-3.574-7.983-7.983s3.574-7.983,7.983-7.983h178.827
	c4.41,0,7.983,3.574,7.983,7.983S349.824,512,345.414,512z"/>
<g>
	<path style="fill:#E24642;" d="M398.726,122.534c-1.5-2.082-3.91-3.316-6.476-3.316h-55.344c-0.018,0-0.036,0-0.054,0H200.688
		c-0.015,0-0.03,0-0.044,0h-50.677l-14.074-45.471c-1.036-3.342-4.127-5.622-7.627-5.622H72.915c-4.409,0-7.983,3.574-7.983,7.983
		s3.574,7.983,7.983,7.983h49.465l53.611,173.205c1.035,3.343,4.126,5.622,7.627,5.622h166.054c3.437,0,6.488-2.199,7.574-5.458
		l42.578-127.734C400.635,127.291,400.226,124.615,398.726,122.534z M372.303,161.796h-34.294l5.413-26.611h37.753L372.303,161.796z
		 M358.11,204.374h-28.761l5.413-26.611h32.22L358.11,204.374z M276.757,246.952v-26.611h33.051l-5.413,26.611H276.757z
		 M233.152,246.952l-5.413-26.611h33.051v26.611H233.152z M168.088,177.763h34.698l5.413,26.611h-31.873L168.088,177.763z
		 M219.08,177.763h41.71v26.611h-36.299L219.08,177.763z M260.79,161.796h-44.958l-5.413-26.611h50.371V161.796z M276.757,135.185
		h50.371l-5.413,26.611h-44.958V135.185z M276.757,204.374v-26.611h41.71l-5.413,26.611H276.757z M194.126,135.185l5.413,26.611
		h-36.392l-8.237-26.611H194.126z M181.267,220.341h30.178l5.413,26.611h-27.354L181.267,220.341z M343.918,246.952h-23.229
		l5.413-26.611h26.687L343.918,246.952z"/>
	<path style="fill:#E24642;" d="M315.609,263.983c-16.14,0-29.272,13.131-29.272,29.272c0,16.141,13.132,29.272,29.272,29.272
		c16.14,0,29.272-13.131,29.272-29.272C344.882,277.114,331.749,263.983,315.609,263.983z M315.609,306.561
		c-7.337,0-13.306-5.968-13.306-13.306c0-7.337,5.968-13.306,13.306-13.306s13.306,5.968,13.306,13.306
		C328.915,300.593,322.946,306.561,315.609,306.561z"/>
	<path style="fill:#E24642;" d="M221.938,263.983c-16.141,0-29.272,13.131-29.272,29.272c0,16.141,13.131,29.272,29.272,29.272
		s29.272-13.131,29.272-29.272C251.21,277.114,238.079,263.983,221.938,263.983z M221.938,306.561
		c-7.337,0-13.306-5.968-13.306-13.306c0-7.337,5.968-13.306,13.306-13.306c7.337,0,13.306,5.968,13.306,13.306
		C235.243,300.593,229.275,306.561,221.938,306.561z"/>
</g>
</svg>